<svg width="37" height="37" viewBox="0 0 37 37" fill="none" xmlns="http://www.w3.org/2000/svg">
<path d="M18.504 9.10125C13.3016 9.10125 9.10527 13.2976 9.10527 18.5C9.10527 23.7025 13.3016 27.8988 18.504 27.8988C23.7065 27.8988 27.9028 23.7025 27.9028 18.5C27.9028 13.2976 23.7065 9.10125 18.504 9.10125ZM18.504 24.6104C15.1421 24.6104 12.3936 21.8702 12.3936 18.5C12.3936 15.1299 15.1339 12.3896 18.504 12.3896C21.8742 12.3896 24.6145 15.1299 24.6145 18.5C24.6145 21.8702 21.866 24.6104 18.504 24.6104V24.6104ZM30.4795 8.71679C30.4795 9.9356 29.4979 10.909 28.2873 10.909C27.0685 10.909 26.095 9.92742 26.095 8.71679C26.095 7.50615 27.0766 6.52456 28.2873 6.52456C29.4979 6.52456 30.4795 7.50615 30.4795 8.71679ZM36.7045 10.9417C36.5654 8.00513 35.8946 5.4039 33.7433 3.26076C31.6002 1.11761 28.9989 0.44685 26.0623 0.299611C23.0357 0.127832 13.9642 0.127832 10.9376 0.299611C8.00916 0.43867 5.40793 1.10943 3.25661 3.25258C1.10528 5.39573 0.4427 7.99695 0.29546 10.9336C0.123681 13.9601 0.123681 23.0317 0.29546 26.0583C0.43452 28.9949 1.10528 31.5961 3.25661 33.7393C5.40793 35.8824 8.00098 36.5532 10.9376 36.7004C13.9642 36.8722 23.0357 36.8722 26.0623 36.7004C28.9989 36.5614 31.6002 35.8906 33.7433 33.7393C35.8865 31.5961 36.5572 28.9949 36.7045 26.0583C36.8762 23.0317 36.8762 13.9683 36.7045 10.9417V10.9417ZM32.7944 29.3057C32.1564 30.909 30.9212 32.1442 29.3098 32.7904C26.8967 33.7475 21.1707 33.5266 18.504 33.5266C15.8374 33.5266 10.1032 33.7393 7.69832 32.7904C6.09505 32.1524 4.85988 30.9172 4.21366 29.3057C3.25661 26.8927 3.47746 21.1667 3.47746 18.5C3.47746 15.8334 3.26479 10.0992 4.21366 7.69429C4.8517 6.09102 6.08687 4.85585 7.69832 4.20963C10.1114 3.25258 15.8374 3.47343 18.504 3.47343C21.1707 3.47343 26.9049 3.26076 29.3098 4.20963C30.913 4.84767 32.1482 6.08284 32.7944 7.69429C33.7515 10.1074 33.5306 15.8334 33.5306 18.5C33.5306 21.1667 33.7515 26.9008 32.7944 29.3057Z" fill="white"/>
</svg>
