<svg width="37" height="37" viewBox="0 0 37 37" fill="none" xmlns="http://www.w3.org/2000/svg">
<path d="M12.4307 29.411C12.4307 29.5589 12.2607 29.6772 12.0463 29.6772C11.8024 29.6994 11.6324 29.5811 11.6324 29.411C11.6324 29.2632 11.8024 29.1449 12.0168 29.1449C12.2385 29.1227 12.4307 29.241 12.4307 29.411ZM10.1317 29.0784C10.0799 29.2262 10.2278 29.3963 10.4496 29.4406C10.6418 29.5145 10.8635 29.4406 10.9079 29.2928C10.9522 29.1449 10.8118 28.9749 10.59 28.9084C10.3978 28.8566 10.1834 28.9305 10.1317 29.0784ZM13.3992 28.9527C13.1848 29.0045 13.0369 29.1449 13.0591 29.3149C13.0813 29.4628 13.2735 29.5589 13.4953 29.5071C13.7096 29.4554 13.8575 29.3149 13.8353 29.1671C13.8131 29.0266 13.6135 28.9305 13.3992 28.9527ZM18.2634 0.624756C8.01004 0.624756 0.166626 8.40903 0.166626 18.6624C0.166626 26.8606 5.32657 33.8761 12.6969 36.3452C13.6431 36.5152 13.9758 35.9312 13.9758 35.4507C13.9758 34.9924 13.9536 32.4641 13.9536 30.9117C13.9536 30.9117 8.77886 32.0206 7.69216 28.7088C7.69216 28.7088 6.84942 26.5575 5.63706 26.0031C5.63706 26.0031 3.94418 24.8425 5.75534 24.8647C5.75534 24.8647 7.59606 25.0125 8.60883 26.7719C10.2278 29.6254 12.9408 28.8049 13.9979 28.317C14.168 27.1342 14.6485 26.3136 15.1807 25.8257C11.0483 25.3674 6.87899 24.7686 6.87899 17.657C6.87899 15.6241 7.44082 14.6039 8.62361 13.3028C8.43141 12.8223 7.80305 10.8412 8.81582 8.28336C10.3608 7.80285 13.9166 10.2793 13.9166 10.2793C15.3951 9.86535 16.9845 9.65097 18.5591 9.65097C20.1337 9.65097 21.7231 9.86535 23.2016 10.2793C23.2016 10.2793 26.7574 7.79545 28.3024 8.28336C29.3151 10.8485 28.6868 12.8223 28.4946 13.3028C29.6774 14.6113 30.4018 15.6315 30.4018 17.657C30.4018 24.7907 26.0477 25.36 21.9153 25.8257C22.5954 26.4097 23.172 27.5186 23.172 29.2558C23.172 31.7471 23.1498 34.8297 23.1498 35.4359C23.1498 35.9164 23.4899 36.5004 24.4287 36.3304C31.8212 33.8761 36.8333 26.8606 36.8333 18.6624C36.8333 8.40903 28.5168 0.624756 18.2634 0.624756ZM7.35211 26.1214C7.25601 26.1953 7.27818 26.3653 7.40386 26.5058C7.52214 26.6241 7.69216 26.6758 7.78827 26.5797C7.88437 26.5058 7.86219 26.3358 7.73652 26.1953C7.61824 26.077 7.44821 26.0253 7.35211 26.1214ZM6.55372 25.5226C6.50198 25.6187 6.5759 25.737 6.72375 25.8109C6.84203 25.8848 6.98988 25.8627 7.04163 25.7592C7.09337 25.6631 7.01945 25.5448 6.8716 25.4709C6.72375 25.4265 6.60547 25.4487 6.55372 25.5226ZM8.94888 28.1543C8.8306 28.2504 8.87496 28.4722 9.04499 28.6127C9.21501 28.7827 9.42939 28.8049 9.5255 28.6866C9.6216 28.5905 9.57724 28.3687 9.42939 28.2282C9.26676 28.0582 9.04499 28.036 8.94888 28.1543ZM8.10614 27.0676C7.98786 27.1416 7.98786 27.3338 8.10614 27.5038C8.22442 27.6738 8.42402 27.7477 8.52012 27.6738C8.6384 27.5777 8.6384 27.3855 8.52012 27.2155C8.41663 27.0455 8.22442 26.9715 8.10614 27.0676Z" fill="white"/>
</svg>
