<svg width="46" height="46" viewBox="0 0 46 46" fill="none" xmlns="http://www.w3.org/2000/svg">
<path d="M12.4135 42.1665H4.46619V16.5738H12.4135V42.1665ZM8.43558 13.0828C5.89428 13.0828 3.83301 10.9778 3.83301 8.43655C3.83301 7.21587 4.31792 6.04519 5.18107 5.18205C6.04422 4.3189 7.2149 3.83398 8.43558 3.83398C9.65625 3.83398 10.8269 4.3189 11.6901 5.18205C12.5532 6.04519 13.0381 7.21587 13.0381 8.43655C13.0381 10.9778 10.976 13.0828 8.43558 13.0828ZM42.1578 42.1665H34.2276V29.7081C34.2276 26.739 34.1677 22.9313 30.0956 22.9313C25.9637 22.9313 25.3305 26.1572 25.3305 29.4942V42.1665H17.3917V16.5738H25.0139V20.0649H25.1251C26.1861 18.0541 28.7779 15.9321 32.6446 15.9321C40.6878 15.9321 42.1663 21.2286 42.1663 28.1081V42.1665H42.1578Z" fill="white"/>
</svg>
